<svg xmlns="http://www.w3.org/2000/svg" viewBox="0 0 1280 420" width="1280" height="420" role="img" aria-label="Constellation Method">
<defs><linearGradient id="bg" x1="0" y1="0" x2="0" y2="1"><stop offset="0" stop-color="#F4EBE2"/><stop offset="1" stop-color="#E7DCD0"/></linearGradient>
<radialGradient id="glow"><stop offset="0" stop-color="#A32B1C" stop-opacity="0.85"/><stop offset="1" stop-color="#A32B1C" stop-opacity="0"/></radialGradient></defs>
<rect width="1280" height="420" fill="url(#bg)"/><circle cx="439" cy="84" r="1.8" fill="#642DA4" opacity="0.14"/><circle cx="687" cy="162" r="0.9" fill="#642DA4" opacity="0.26"/><circle cx="104" cy="186" r="0.9" fill="#642DA4" opacity="0.15"/><circle cx="557" cy="328" r="1.0" fill="#642DA4" opacity="0.18"/><circle cx="794" cy="371" r="1.7" fill="#642DA4" opacity="0.23"/><circle cx="1202" cy="47" r="2.2" fill="#642DA4" opacity="0.20"/><circle cx="229" cy="72" r="1.3" fill="#642DA4" opacity="0.35"/><circle cx="271" cy="239" r="1.8" fill="#642DA4" opacity="0.22"/><circle cx="701" cy="53" r="0.9" fill="#642DA4" opacity="0.18"/><circle cx="856" cy="184" r="1.3" fill="#642DA4" opacity="0.28"/><circle cx="590" cy="138" r="2.1" fill="#642DA4" opacity="0.32"/><circle cx="346" cy="237" r="1.6" fill="#642DA4" opacity="0.37"/><circle cx="913" cy="134" r="2.4" fill="#642DA4" opacity="0.15"/><circle cx="549" cy="303" r="1.0" fill="#642DA4" opacity="0.26"/><circle cx="106" cy="271" r="2.0" fill="#642DA4" opacity="0.28"/><circle cx="1084" cy="143" r="1.9" fill="#642DA4" opacity="0.29"/><circle cx="738" cy="194" r="2.1" fill="#642DA4" opacity="0.38"/><circle cx="615" cy="269" r="0.9" fill="#642DA4" opacity="0.32"/><circle cx="817" cy="388" r="2.1" fill="#642DA4" opacity="0.20"/><circle cx="511" cy="271" r="0.8" fill="#642DA4" opacity="0.25"/><circle cx="257" cy="72" r="0.9" fill="#642DA4" opacity="0.34"/><circle cx="211" cy="119" r="1.4" fill="#642DA4" opacity="0.36"/><circle cx="154" cy="192" r="1.7" fill="#642DA4" opacity="0.37"/><circle cx="1019" cy="341" r="1.2" fill="#642DA4" opacity="0.24"/><circle cx="480" cy="348" r="2.3" fill="#642DA4" opacity="0.16"/><circle cx="266" cy="114" r="1.2" fill="#642DA4" opacity="0.26"/><line x1="915" y1="105" x2="795" y2="315" stroke="#8A7BB0" stroke-width="1.4" opacity="0.55"/><line x1="795" y1="315" x2="1035" y2="315" stroke="#8A7BB0" stroke-width="1.4" opacity="0.55"/><line x1="1035" y1="315" x2="915" y2="105" stroke="#8A7BB0" stroke-width="1.4" opacity="0.55"/><line x1="915" y1="105" x2="915" y2="235" stroke="#8A7BB0" stroke-width="1.4" opacity="0.55"/><line x1="795" y1="315" x2="915" y2="235" stroke="#8A7BB0" stroke-width="1.4" opacity="0.55"/><line x1="1035" y1="315" x2="915" y2="235" stroke="#8A7BB0" stroke-width="1.4" opacity="0.55"/>
<circle cx="915" cy="235" r="46" fill="url(#glow)"/><path d="M915,215 L920.2,229.8 L935,235 L920.2,240.2 L915,255 L909.8,240.2 L895,235 L909.8,229.8 Z" fill="#A32B1C" opacity="0.22"/>
<text x="915" y="246" text-anchor="middle" font-family="ui-monospace,Menlo,Consolas,monospace" font-size="34" font-weight="700" fill="#191128">[<tspan fill="#A32B1C">·</tspan>]</text>
<path d="M915,90 L918.9,101.1 L930,105 L918.9,108.9 L915,120 L911.1,108.9 L900,105 L911.1,101.1 Z" fill="#642DA4" opacity="0.25"/><path d="M915,96 L917.3,102.7 L924,105 L917.3,107.3 L915,114 L912.7,107.3 L906,105 L912.7,102.7 Z" fill="#642DA4"/><text x="915" y="79" text-anchor="middle" font-family="ui-monospace,Menlo,Consolas,monospace" font-size="19" fill="#191128">thinker</text><path d="M795,300 L798.9,311.1 L810,315 L798.9,318.9 L795,330 L791.1,318.9 L780,315 L791.1,311.1 Z" fill="#642DA4" opacity="0.25"/><path d="M795,306 L797.3,312.7 L804,315 L797.3,317.3 L795,324 L792.7,317.3 L786,315 L792.7,312.7 Z" fill="#642DA4"/><text x="795" y="349" text-anchor="middle" font-family="ui-monospace,Menlo,Consolas,monospace" font-size="19" fill="#191128">manager</text><path d="M1035,300 L1038.9,311.1 L1050,315 L1038.9,318.9 L1035,330 L1031.1,318.9 L1020,315 L1031.1,311.1 Z" fill="#642DA4" opacity="0.25"/><path d="M1035,306 L1037.3,312.7 L1044,315 L1037.3,317.3 L1035,324 L1032.7,317.3 L1026,315 L1032.7,312.7 Z" fill="#642DA4"/><text x="1035" y="349" text-anchor="middle" font-family="ui-monospace,Menlo,Consolas,monospace" font-size="19" fill="#191128">worker</text>
<text x="90" y="150" font-family="ui-monospace,Menlo,Consolas,monospace" font-size="20" fill="#642DA4" letter-spacing="2">NUD [<tspan fill="#A32B1C">·</tspan>]</text>
<text x="86" y="214" font-family="Georgia,'Times New Roman',serif" font-size="58" font-weight="700" fill="#191128">Constellation</text>
<text x="86" y="272" font-family="Georgia,'Times New Roman',serif" font-size="58" font-weight="700" fill="#642DA4">Method</text>
<text x="90" y="326" font-family="ui-monospace,Menlo,Consolas,monospace" font-size="18" fill="#6B6480">one human · three agents</text>
<text x="90" y="352" font-family="ui-monospace,Menlo,Consolas,monospace" font-size="18" fill="#6B6480">context that steers everything</text>
</svg>